<?xml version="1.0" encoding="utf-8"?>
<!-- Generator: Adobe Illustrator 27.8.1, SVG Export Plug-In . SVG Version: 6.00 Build 0)  -->
<svg version="1.1" id="Ebene_1" xmlns="http://www.w3.org/2000/svg" xmlns:xlink="http://www.w3.org/1999/xlink" x="0px" y="0px"
	 viewBox="0 0 1920 1080" style="enable-background:new 0 0 1920 1080;" xml:space="preserve">
<style type="text/css">
	.st0{clip-path:url(#SVGID_00000024694861365702719390000005997958600110854035_);fill:#9EE7D7;}
	.st1{clip-path:url(#SVGID_00000073721002184623103030000017861437851624170895_);fill:#44786C;}
	.st2{clip-path:url(#SVGID_00000073721002184623103030000017861437851624170895_);fill:#38AE8F;}
	.st3{clip-path:url(#SVGID_00000073721002184623103030000017861437851624170895_);fill:#609C8B;}
	.st4{clip-path:url(#SVGID_00000073721002184623103030000017861437851624170895_);fill:#004838;}
	.st5{clip-path:url(#SVGID_00000073721002184623103030000017861437851624170895_);fill:#F6F5FF;}
	.st6{clip-path:url(#SVGID_00000073721002184623103030000017861437851624170895_);fill:#FFFFFF;}
	.st7{clip-path:url(#SVGID_00000073721002184623103030000017861437851624170895_);fill:#E1F4EF;}
</style>
<g>
	<defs>
		<rect id="SVGID_1_" x="319.2" y="58.4" width="1260" height="939"/>
	</defs>
	<clipPath id="SVGID_00000109708636851763408380000004476515231180292999_">
		<use xlink:href="#SVGID_1_"  style="overflow:visible;"/>
	</clipPath>
	<path style="clip-path:url(#SVGID_00000109708636851763408380000004476515231180292999_);fill:#9EE7D7;" d="M359.2,58.4
		c-22.09,0-40,17.91-40,40v859c0,22.09,17.91,40,40,40h1180c22.09,0,40-17.91,40-40v-859c0-22.09-17.91-40-40-40H359.2z"/>
</g>
<g>
	<defs>
		<path id="SVGID_00000119107251210370215650000010145418440144365230_" d="M359.2,58.4c-22.09,0-40,17.91-40,40v859
			c0,22.09,17.91,40,40,40h1180c22.09,0,40-17.91,40-40v-859c0-22.09-17.91-40-40-40H359.2z"/>
	</defs>
	<clipPath id="SVGID_00000181800668211237820660000001992881504415733677_">
		<use xlink:href="#SVGID_00000119107251210370215650000010145418440144365230_"  style="overflow:visible;"/>
	</clipPath>
	<polygon style="clip-path:url(#SVGID_00000181800668211237820660000001992881504415733677_);fill:#44786C;" points="1265.2,1.4 
		1114.18,1003.4 1430.99,1003.4 1275.32,1.4 	"/>
	<polyline style="clip-path:url(#SVGID_00000181800668211237820660000001992881504415733677_);fill:#38AE8F;" points="
		1536.99,930.4 1324.99,930.4 1424.53,255.08 	"/>
	<polygon style="clip-path:url(#SVGID_00000181800668211237820660000001992881504415733677_);fill:#44786C;" points="
		1398.61,1081.4 1704.39,1081.4 1549.19,82.36 	"/>
	<polygon style="clip-path:url(#SVGID_00000181800668211237820660000001992881504415733677_);fill:#44786C;" points="298.78,1.4 
		153.18,967.4 469.99,967.4 319.91,1.4 	"/>
	<polygon style="clip-path:url(#SVGID_00000181800668211237820660000001992881504415733677_);fill:#609C8B;" points="478.26,1081.4 
		764.45,1081.4 619.18,146.36 	"/>
	<polygon style="clip-path:url(#SVGID_00000181800668211237820660000001992881504415733677_);fill:#004838;" points="775.24,1081.4 
		1089.9,1081.4 930.19,53.36 	"/>
	<polygon style="clip-path:url(#SVGID_00000181800668211237820660000001992881504415733677_);fill:#004838;" points="451.41,1.4 
		311.99,926.44 628.79,926.44 485.08,1.4 	"/>
	<polyline style="clip-path:url(#SVGID_00000181800668211237820660000001992881504415733677_);fill:#004838;" points="
		1545.99,1009.4 1329.99,1009.4 1424.53,536.08 	"/>
	<polyline style="clip-path:url(#SVGID_00000181800668211237820660000001992881504415733677_);fill:#38AE8F;" points="
		1696.99,1009.4 1464.99,1009.4 1575.53,536.08 	"/>
	<polygon style="clip-path:url(#SVGID_00000181800668211237820660000001992881504415733677_);fill:#38AE8F;" points="805.36,1.4 
		656.99,953.4 986.99,953.4 835.31,1.4 	"/>
	
		<rect x="408.99" y="922.4" style="clip-path:url(#SVGID_00000181800668211237820660000001992881504415733677_);fill:#F6F5FF;" width="590" height="82"/>
	<path style="clip-path:url(#SVGID_00000181800668211237820660000001992881504415733677_);fill:#F6F5FF;" d="M577.19,935.69
		c-4.47,48.48-110.41,93.31-207,67c-83.66-22.79-174-39.18-174-69c0-29.82-56.76-141.07,27.8-160.29
		C326.08,750.2,581.59,888.01,577.19,935.69"/>
	<path style="clip-path:url(#SVGID_00000181800668211237820660000001992881504415733677_);fill:#FFFFFF;" d="M1346.85,937.31
		c-3.9,29.57-120.29,67-207,67s-174-39.18-174-69s104.7-67.57,191-76C1250.37,850.18,1351.63,901.07,1346.85,937.31"/>
	<path style="clip-path:url(#SVGID_00000181800668211237820660000001992881504415733677_);fill:#E1F4EF;" d="M1077.99,992.9
		c0,46.12-62.23,83.5-139,83.5s-139-37.38-139-83.5c0-46.12,62.23-83.5,139-83.5S1077.99,946.79,1077.99,992.9"/>
	<path style="clip-path:url(#SVGID_00000181800668211237820660000001992881504415733677_);fill:#FFFFFF;" d="M409,880.81
		c-4.47,48.48-110.41,93.31-207,67c-83.66-22.79-174-39.18-174-69s106.45-56.79,191-76C321.09,779.61,413.4,833.13,409,880.81"/>
	<polyline style="clip-path:url(#SVGID_00000181800668211237820660000001992881504415733677_);fill:#004838;" points="
		1389.99,1174.4 1161.99,1174.4 1268.53,753.08 	"/>
</g>
</svg>
